<svg xmlns="http://www.w3.org/2000/svg" xmlns:xlink="http://www.w3.org/1999/xlink" version="1.1" x="0px" y="0px" width="68.262px" height="68.262px" viewBox="0 0 68.262 68.262" enable-background="new 0 0 68.262 68.262" xml:space="preserve">
<g id="Layer_2">
</g>
<g id="Layer_1">
  <g>
    <rect x="33.556" y="9.75" fill="#FFFFFF" width="1.149" height="4.065"/>
    
      <rect x="27.772" y="10.511" transform="matrix(0.966 -0.2584 0.2584 0.966 -2.2785 7.7509)" fill="#FCEEF4" width="1.149" height="4.064"/>
    
      <rect x="22.382" y="12.743" transform="matrix(0.8658 -0.5004 0.5004 0.8658 -4.313 13.4716)" fill="#FCEEF4" width="1.149" height="4.065"/>
    
      <rect x="17.753" y="16.295" transform="matrix(0.7069 -0.7073 0.7073 0.7069 -7.591 18.3358)" fill="#FCEEF4" width="1.15" height="4.065"/>
    <g opacity="0.9">
      <g>
        <defs>
          <rect id="SVGID_1_" x="12.729" y="21.442" width="4.095" height="3.027"/>
        </defs>
        <clipPath id="SVGID_2_">
          <use xlink:href="#SVGID_1_" overflow="visible"/>
        </clipPath>
        
          <rect x="14.202" y="20.925" transform="matrix(0.5008 -0.8656 0.8656 0.5008 -12.4939 24.2499)" clip-path="url(#SVGID_2_)" fill="#FCEEF4" width="1.149" height="4.064"/>
      </g>
    </g>
    <g opacity="0.8">
      <g>
        <defs>
          <rect id="SVGID_3_" x="10.432" y="27.264" width="4.224" height="2.164"/>
        </defs>
        <clipPath id="SVGID_4_">
          <use xlink:href="#SVGID_3_" overflow="visible"/>
        </clipPath>
        
          <rect x="11.969" y="26.314" transform="matrix(0.2583 -0.9661 0.9661 0.2583 -18.0804 33.1427)" clip-path="url(#SVGID_4_)" fill="#FCEEF4" width="1.149" height="4.065"/>
      </g>
    </g>
    <g opacity="0.7">
      <g>
        <defs>
          <rect id="SVGID_5_" x="9.75" y="33.555" width="4.065" height="1.15"/>
        </defs>
        <clipPath id="SVGID_6_">
          <use xlink:href="#SVGID_5_" overflow="visible"/>
        </clipPath>
        <rect x="9.75" y="33.555" clip-path="url(#SVGID_6_)" fill="#FCEEF4" width="4.065" height="1.15"/>
      </g>
    </g>
    <g opacity="0.6">
      <g>
        <defs>
          <rect id="SVGID_7_" x="10.432" y="38.834" width="4.224" height="2.162"/>
        </defs>
        <clipPath id="SVGID_8_">
          <use xlink:href="#SVGID_7_" overflow="visible"/>
        </clipPath>
        
          <rect x="11.97" y="37.883" transform="matrix(-0.2589 -0.9659 0.9659 -0.2589 -22.7624 62.3655)" clip-path="url(#SVGID_8_)" fill="#FCEEF4" width="1.149" height="4.065"/>
      </g>
    </g>
    <g opacity="0.5">
      <g>
        <defs>
          <rect id="SVGID_9_" x="12.729" y="43.791" width="4.095" height="3.027"/>
        </defs>
        <clipPath id="SVGID_10_">
          <use xlink:href="#SVGID_9_" overflow="visible"/>
        </clipPath>
        
          <rect x="14.202" y="43.272" transform="matrix(-0.5008 -0.8656 0.8656 -0.5008 -17.0373 80.7834)" clip-path="url(#SVGID_10_)" fill="#FCEEF4" width="1.149" height="4.066"/>
      </g>
    </g>
    <g opacity="0.4">
      <g>
        <defs>
          <rect id="SVGID_11_" x="16.484" y="48.09" width="3.688" height="3.688"/>
        </defs>
        <clipPath id="SVGID_12_">
          <use xlink:href="#SVGID_11_" overflow="visible"/>
        </clipPath>
        
          <rect x="17.754" y="47.901" transform="matrix(-0.7073 -0.7069 0.7069 -0.7073 -4.0054 98.2088)" clip-path="url(#SVGID_12_)" fill="#FCEEF4" width="1.149" height="4.066"/>
      </g>
    </g>
    <g opacity="0.3">
      <g>
        <defs>
          <rect id="SVGID_13_" x="21.443" y="51.438" width="3.027" height="4.096"/>
        </defs>
        <clipPath id="SVGID_14_">
          <use xlink:href="#SVGID_13_" overflow="visible"/>
        </clipPath>
        
          <rect x="22.383" y="51.452" transform="matrix(-0.866 -0.5 0.5 -0.866 16.0975 111.2819)" clip-path="url(#SVGID_14_)" fill="#FCEEF4" width="1.148" height="4.064"/>
      </g>
    </g>
    <g opacity="0.3">
      <g>
        <defs>
          <rect id="SVGID_15_" x="27.265" y="53.605" width="2.163" height="4.225"/>
        </defs>
        <clipPath id="SVGID_16_">
          <use xlink:href="#SVGID_15_" overflow="visible"/>
        </clipPath>
        
          <rect x="27.772" y="53.685" transform="matrix(-0.966 -0.2584 0.2584 -0.966 41.3335 116.8681)" clip-path="url(#SVGID_16_)" fill="#FCEEF4" width="1.149" height="4.066"/>
      </g>
    </g>
    <g opacity="0.3">
      <g>
        <defs>
          <rect id="SVGID_17_" x="33.556" y="54.447" width="1.149" height="4.064"/>
        </defs>
        <clipPath id="SVGID_18_">
          <use xlink:href="#SVGID_17_" overflow="visible"/>
        </clipPath>
        <rect x="33.556" y="54.447" clip-path="url(#SVGID_18_)" fill="#FCEEF4" width="1.149" height="4.064"/>
      </g>
    </g>
    <g opacity="0.3">
      <g>
        <defs>
          <rect id="SVGID_19_" x="38.834" y="53.605" width="2.162" height="4.225"/>
        </defs>
        <clipPath id="SVGID_20_">
          <use xlink:href="#SVGID_19_" overflow="visible"/>
        </clipPath>
        
          <rect x="39.34" y="53.685" transform="matrix(-0.9661 0.2583 -0.2583 -0.9661 92.8671 99.2329)" clip-path="url(#SVGID_20_)" fill="#FCEEF4" width="1.149" height="4.064"/>
      </g>
    </g>
    <g opacity="0.3">
      <g>
        <defs>
          <rect id="SVGID_21_" x="43.791" y="51.438" width="3.028" height="4.096"/>
        </defs>
        <clipPath id="SVGID_22_">
          <use xlink:href="#SVGID_21_" overflow="visible"/>
        </clipPath>
        
          <rect x="44.73" y="51.452" transform="matrix(-0.8664 0.4994 -0.4994 -0.8664 111.2672 77.1941)" clip-path="url(#SVGID_22_)" fill="#FCEEF4" width="1.15" height="4.064"/>
      </g>
    </g>
    <g opacity="0.3">
      <g>
        <defs>
          <rect id="SVGID_23_" x="48.09" y="48.09" width="3.688" height="3.688"/>
        </defs>
        <clipPath id="SVGID_24_">
          <use xlink:href="#SVGID_23_" overflow="visible"/>
        </clipPath>
        
          <rect x="49.359" y="47.901" transform="matrix(-0.7075 0.7067 -0.7067 -0.7075 120.5503 49.976)" clip-path="url(#SVGID_24_)" fill="#FCEEF4" width="1.15" height="4.065"/>
      </g>
    </g>
    <g opacity="0.3">
      <g>
        <defs>
          <rect id="SVGID_25_" x="51.438" y="43.791" width="4.096" height="3.027"/>
        </defs>
        <clipPath id="SVGID_26_">
          <use xlink:href="#SVGID_25_" overflow="visible"/>
        </clipPath>
        
          <rect x="52.911" y="43.271" transform="matrix(-0.5008 0.8656 -0.8656 -0.5008 119.4841 21.697)" clip-path="url(#SVGID_26_)" fill="#FCEEF4" width="1.149" height="4.064"/>
      </g>
    </g>
    <g opacity="0.3">
      <g>
        <defs>
          <rect id="SVGID_27_" x="53.605" y="38.834" width="4.225" height="2.162"/>
        </defs>
        <clipPath id="SVGID_28_">
          <use xlink:href="#SVGID_27_" overflow="visible"/>
        </clipPath>
        
          <rect x="55.143" y="37.882" transform="matrix(-0.2593 0.9658 -0.9658 -0.2593 108.7144 -3.5481)" clip-path="url(#SVGID_28_)" fill="#FCEEF4" width="1.149" height="4.065"/>
      </g>
    </g>
    <g opacity="0.3">
      <g>
        <defs>
          <rect id="SVGID_29_" x="54.447" y="33.555" width="4.064" height="1.15"/>
        </defs>
        <clipPath id="SVGID_30_">
          <use xlink:href="#SVGID_29_" overflow="visible"/>
        </clipPath>
        <rect x="54.447" y="33.555" clip-path="url(#SVGID_30_)" fill="#FCEEF4" width="4.064" height="1.15"/>
      </g>
    </g>
    <g opacity="0.3">
      <g>
        <defs>
          <rect id="SVGID_31_" x="53.605" y="27.264" width="4.225" height="2.164"/>
        </defs>
        <clipPath id="SVGID_32_">
          <use xlink:href="#SVGID_31_" overflow="visible"/>
        </clipPath>
        
          <rect x="55.144" y="26.314" transform="matrix(0.2583 0.9661 -0.9661 0.2583 68.7107 -32.803)" clip-path="url(#SVGID_32_)" fill="#FCEEF4" width="1.149" height="4.065"/>
      </g>
    </g>
    <g opacity="0.3">
      <g>
        <defs>
          <rect id="SVGID_33_" x="51.438" y="21.442" width="4.096" height="3.027"/>
        </defs>
        <clipPath id="SVGID_34_">
          <use xlink:href="#SVGID_33_" overflow="visible"/>
        </clipPath>
        
          <rect x="52.911" y="20.923" transform="matrix(0.5004 0.8658 -0.8658 0.5004 46.5945 -34.8386)" clip-path="url(#SVGID_34_)" fill="#FCEEF4" width="1.149" height="4.066"/>
      </g>
    </g>
    <g opacity="0.3">
      <g>
        <defs>
          <rect id="SVGID_35_" x="48.09" y="16.484" width="3.688" height="3.687"/>
        </defs>
        <clipPath id="SVGID_36_">
          <use xlink:href="#SVGID_35_" overflow="visible"/>
        </clipPath>
        
          <rect x="49.359" y="16.296" transform="matrix(0.7067 0.7075 -0.7075 0.7067 27.6141 -29.9536)" clip-path="url(#SVGID_36_)" fill="#FCEEF4" width="1.15" height="4.064"/>
      </g>
    </g>
    <g opacity="0.3">
      <g>
        <defs>
          <rect id="SVGID_37_" x="43.791" y="12.729" width="3.028" height="4.095"/>
        </defs>
        <clipPath id="SVGID_38_">
          <use xlink:href="#SVGID_37_" overflow="visible"/>
        </clipPath>
        
          <rect x="44.731" y="12.744" transform="matrix(0.866 0.5001 -0.5001 0.866 13.4607 -20.6756)" clip-path="url(#SVGID_38_)" fill="#FCEEF4" width="1.15" height="4.065"/>
      </g>
    </g>
    <g opacity="0.3">
      <g>
        <defs>
          <rect id="SVGID_39_" x="38.834" y="10.43" width="2.162" height="4.226"/>
        </defs>
        <clipPath id="SVGID_40_">
          <use xlink:href="#SVGID_39_" overflow="visible"/>
        </clipPath>
        
          <rect x="39.341" y="10.51" transform="matrix(0.9661 0.2583 -0.2583 0.9661 4.5943 -9.8844)" clip-path="url(#SVGID_40_)" fill="#FCEEF4" width="1.149" height="4.065"/>
      </g>
    </g>
  </g>
</g>
</svg>