<svg xmlns="http://www.w3.org/2000/svg" xmlns:xlink="http://www.w3.org/1999/xlink" version="1.1" x="0px" y="0px" width="68.262px" height="68.262px" viewBox="0 0 68.262 68.262" enable-background="new 0 0 68.262 68.262" xml:space="preserve">
<g id="Layer_2">
</g>
<g id="Layer_1">
  
    <linearGradient id="SVGID_1_" gradientUnits="userSpaceOnUse" x1="591.4219" y1="724.6006" x2="614.4496" y2="697.4984" gradientTransform="matrix(1 0 0 1 -565 -682)">
    <stop offset="0" style="stop-color:#FFFFFF;stop-opacity:0.9"/>
    <stop offset="1" style="stop-color:#FFFFFF;stop-opacity:0"/>
  </linearGradient>
  <path fill="url(#SVGID_1_)" d="M34.117-0.002c0,0-0.835,0.042-2.299,0.116c-0.365,0.021-0.77,0.041-1.21,0.064   c-0.437,0.066-0.909,0.139-1.413,0.215c-0.505,0.078-1.042,0.159-1.606,0.246c-0.567,0.077-1.141,0.274-1.752,0.415   c-0.608,0.158-1.241,0.322-1.896,0.493c-0.637,0.233-1.294,0.473-1.969,0.72c-0.339,0.124-0.68,0.249-1.027,0.377   c-0.342,0.141-0.672,0.314-1.013,0.476c-0.682,0.328-1.376,0.664-2.082,1.005c-2.736,1.546-5.454,3.53-7.855,5.871   c-2.341,2.399-4.322,5.12-5.868,7.854c-0.341,0.707-0.678,1.401-1.007,2.082c-0.159,0.343-0.334,0.674-0.475,1.015   c-0.128,0.346-0.254,0.688-0.378,1.027c-0.247,0.677-0.487,1.333-0.72,1.969c-0.169,0.655-0.335,1.289-0.492,1.895   c-0.142,0.612-0.338,1.186-0.413,1.753c-0.087,0.566-0.169,1.103-0.246,1.607c-0.076,0.505-0.147,0.976-0.215,1.413   c-0.023,0.441-0.045,0.845-0.065,1.211C0.042,33.286,0,34.122,0,34.122v0.02c0,0,0.04,0.835,0.115,2.299   c0.02,0.366,0.042,0.771,0.065,1.211c0.065,0.435,0.138,0.908,0.214,1.413c0.077,0.504,0.16,1.041,0.247,1.605   c0.076,0.567,0.272,1.142,0.416,1.755c0.157,0.607,0.321,1.238,0.492,1.896c0.231,0.636,0.472,1.292,0.72,1.969   c0.124,0.338,0.248,0.681,0.377,1.027c0.141,0.34,0.315,0.671,0.475,1.013c0.329,0.682,0.665,1.375,1.006,2.082   c1.546,2.735,3.529,5.455,5.872,7.854c2.399,2.342,5.119,4.324,7.854,5.872c0.707,0.34,1.401,0.675,2.081,1.003   c0.343,0.162,0.675,0.336,1.015,0.477c0.348,0.127,0.688,0.252,1.026,0.378c0.677,0.245,1.334,0.487,1.97,0.72   c0.654,0.17,1.288,0.334,1.896,0.492c0.611,0.141,1.185,0.338,1.753,0.414c0.565,0.086,1.103,0.168,1.606,0.246   c0.505,0.076,0.978,0.148,1.413,0.215c0.44,0.023,0.846,0.045,1.212,0.065c1.463,0.074,2.298,0.116,2.298,0.116h0.021   c0,0,0.461-0.011,1.381-0.027c0.919-0.06,2.306-0.115,4.126-0.42c1.819-0.289,4.076-0.819,6.666-1.797   c2.576-0.996,5.493-2.453,8.435-4.688c-0.151-0.198-0.228-0.3-0.228-0.3l-0.226-0.299l-0.227-0.299c0,0-0.075-0.099-0.226-0.299   c-2.813,2.137-5.604,3.529-8.063,4.482c-2.475,0.934-4.632,1.439-6.373,1.717c-1.74,0.292-3.066,0.346-3.943,0.4   c-0.88,0.018-1.321,0.027-1.321,0.027h-0.021c0,0-0.8-0.041-2.199-0.111c-0.35-0.02-0.737-0.039-1.158-0.061   c-0.417-0.064-0.868-0.135-1.351-0.208c-0.481-0.073-0.995-0.151-1.536-0.233c-0.543-0.07-1.089-0.262-1.674-0.396   c-0.581-0.15-1.187-0.307-1.813-0.469c-0.606-0.223-1.235-0.455-1.881-0.69c-0.323-0.118-0.65-0.239-0.981-0.358   c-0.327-0.133-0.643-0.303-0.97-0.457c-0.649-0.313-1.314-0.635-1.989-0.957c-2.613-1.481-5.215-3.375-7.511-5.615   c-2.237-2.295-4.135-4.895-5.614-7.508c-0.326-0.676-0.646-1.342-0.96-1.991c-0.151-0.328-0.321-0.644-0.457-0.97   c-0.12-0.33-0.24-0.658-0.358-0.98c-0.237-0.646-0.468-1.275-0.688-1.882c-0.163-0.627-0.32-1.231-0.47-1.813   c-0.136-0.585-0.326-1.131-0.398-1.673c-0.082-0.541-0.161-1.056-0.233-1.536c-0.075-0.484-0.144-0.936-0.208-1.352   c-0.022-0.422-0.042-0.808-0.061-1.158c-0.071-1.4-0.111-2.199-0.111-2.199l-0.004-0.022c0,0,0.041-0.798,0.114-2.198   c0.018-0.35,0.038-0.737,0.06-1.16c0.064-0.417,0.133-0.866,0.207-1.35c0.073-0.481,0.151-0.995,0.234-1.536   c0.07-0.543,0.262-1.089,0.397-1.673c0.149-0.583,0.308-1.188,0.469-1.815c0.223-0.606,0.452-1.233,0.689-1.88   c0.117-0.323,0.237-0.65,0.358-0.981c0.134-0.325,0.304-0.642,0.456-0.969c0.314-0.65,0.634-1.315,0.959-1.991   c1.48-2.613,3.375-5.213,5.614-7.51c2.295-2.237,4.895-4.134,7.509-5.614c0.677-0.326,1.34-0.647,1.991-0.96   c0.327-0.153,0.644-0.321,0.969-0.456c0.331-0.122,0.658-0.241,0.981-0.358c0.646-0.237,1.274-0.468,1.882-0.691   c0.627-0.162,1.231-0.318,1.813-0.469c0.584-0.134,1.131-0.325,1.674-0.397c0.541-0.082,1.055-0.161,1.535-0.234   c0.482-0.073,0.934-0.143,1.352-0.208c0.421-0.021,0.809-0.042,1.158-0.06C33.321,1.539,34.12,1.5,34.12,1.5l0.02,0   c0,0,1.066,0.054,3.198,0.162c2.097,0.314,5.337,0.644,9.285,2.325c3.948,1.587,8.574,4.556,12.731,9.448   c2.006,2.495,3.841,5.482,5.196,8.962c1.353,3.476,2.201,7.456,2.211,11.733h0.374h0.375h0.377h0.374   c-0.01-4.47-0.894-8.637-2.31-12.272c-1.421-3.642-3.336-6.766-5.438-9.375C56.169,7.363,51.326,4.263,47.195,2.6   c-4.131-1.757-7.521-2.108-9.714-2.434c-2.229-0.112-3.343-0.169-3.343-0.169H34.117z"/>
</g>
</svg>