<svg xmlns="http://www.w3.org/2000/svg" xmlns:xlink="http://www.w3.org/1999/xlink" version="1.1" id="Layer_1" x="0px" y="0px" width="110px" height="110px" viewBox="0 0 110 110" enable-background="new 0 0 110 110" xml:space="preserve">
<g>
  <g opacity="0.3">
    <g>
      <defs>
        
          <rect id="SVGID_1_" x="52.922" y="29.478" transform="matrix(-0.7509 -0.6605 0.6605 -0.7509 75.3248 91.9995)" width="4.185" height="4.629"/>
      </defs>
      <clipPath id="SVGID_2_">
        <use xlink:href="#SVGID_1_" overflow="visible"/>
      </clipPath>
      <path clip-path="url(#SVGID_2_)" fill="#FCEEF4" d="M55.454,34.461l0.068-5.303c-0.332-0.007-0.66,0.012-0.993,0.017l0.03,5.301     C54.858,34.471,55.156,34.453,55.454,34.461"/>
    </g>
  </g>
  <g opacity="0.3">
    <g>
      <defs>
        
          <rect id="SVGID_3_" x="52.755" y="76.124" transform="matrix(-0.7509 -0.6604 0.6604 -0.7509 44.2353 173.569)" width="4.194" height="4.636"/>
      </defs>
      <clipPath id="SVGID_4_">
        <use xlink:href="#SVGID_3_" overflow="visible"/>
      </clipPath>
      <path clip-path="url(#SVGID_4_)" fill="#FCEEF4" d="M54.407,75.773l-0.069,5.303c0.334,0.006,0.669-0.012,1.005-0.017     l-0.033-5.302C55.01,75.765,54.709,75.78,54.407,75.773"/>
    </g>
  </g>
  <g opacity="0.4">
    <g>
      <defs>
        
          <rect id="SVGID_5_" x="48.657" y="30.085" transform="matrix(-0.751 -0.6603 0.6603 -0.751 68.1195 89.9271)" width="4.718" height="4.068"/>
      </defs>
      <clipPath id="SVGID_6_">
        <use xlink:href="#SVGID_5_" overflow="visible"/>
      </clipPath>
      <path clip-path="url(#SVGID_6_)" fill="#FCEEF4" d="M51.905,34.681l-0.854-5.239c-0.328,0.049-0.651,0.118-0.977,0.178     l0.95,5.218C51.317,34.781,51.609,34.723,51.905,34.681"/>
    </g>
  </g>
  <g opacity="0.4">
    <g>
      <defs>
        
          <rect id="SVGID_7_" x="56.583" y="76.048" transform="matrix(-0.7508 -0.6605 0.6605 -0.7508 51.6156 175.654)" width="4.712" height="4.086"/>
      </defs>
      <clipPath id="SVGID_8_">
        <use xlink:href="#SVGID_7_" overflow="visible"/>
      </clipPath>
      <path clip-path="url(#SVGID_8_)" fill="#FCEEF4" d="M58.047,75.539l0.853,5.238c0.332-0.051,0.656-0.129,0.984-0.193     l-0.949-5.217C58.639,75.425,58.344,75.493,58.047,75.539"/>
    </g>
  </g>
  <g opacity="0.5">
    <g>
      <defs>
        
          <rect id="SVGID_9_" x="44.564" y="31.434" transform="matrix(-0.7509 -0.6604 0.6604 -0.7509 60.638 89.1193)" width="5.124" height="3.381"/>
      </defs>
      <clipPath id="SVGID_10_">
        <use xlink:href="#SVGID_9_" overflow="visible"/>
      </clipPath>
      <path clip-path="url(#SVGID_10_)" fill="#FCEEF4" d="M48.444,35.505l-1.749-5.01c-0.316,0.103-0.634,0.198-0.945,0.312     l1.847,4.98C47.876,35.683,48.161,35.598,48.444,35.505"/>
    </g>
  </g>
  <g opacity="0.5">
    <g>
      <defs>
        
          <rect id="SVGID_11_" x="60.349" y="75.33" transform="matrix(-0.7509 -0.6604 0.6604 -0.7509 59.2631 176.4123)" width="5.106" height="3.398"/>
      </defs>
      <clipPath id="SVGID_12_">
        <use xlink:href="#SVGID_11_" overflow="visible"/>
      </clipPath>
      <path clip-path="url(#SVGID_12_)" fill="#FCEEF4" d="M61.583,74.662l1.75,5.009c0.314-0.107,0.631-0.217,0.943-0.338     l-1.846-4.979C62.15,74.463,61.868,74.563,61.583,74.662"/>
    </g>
  </g>
  <g opacity="0.6">
    <g>
      <defs>
        
          <rect id="SVGID_13_" x="40.793" y="33.49" transform="matrix(-0.7509 -0.6604 0.6604 -0.7509 53.1334 89.6256)" width="5.352" height="2.605"/>
      </defs>
      <clipPath id="SVGID_14_">
        <use xlink:href="#SVGID_13_" overflow="visible"/>
      </clipPath>
      <path clip-path="url(#SVGID_14_)" fill="#FCEEF4" d="M45.173,36.905l-2.595-4.631c-0.292,0.158-0.588,0.306-0.875,0.474     l2.682,4.585C44.644,37.18,44.909,37.047,45.173,36.905"/>
    </g>
  </g>
  <g opacity="0.6">
    <g>
      <defs>
        
          <rect id="SVGID_15_" x="63.938" y="73.986" transform="matrix(-0.751 -0.6603 0.6603 -0.751 66.9234 175.8239)" width="5.354" height="2.614"/>
      </defs>
      <clipPath id="SVGID_16_">
        <use xlink:href="#SVGID_15_" overflow="visible"/>
      </clipPath>
      <path clip-path="url(#SVGID_16_)" fill="#FCEEF4" d="M64.906,73.183l2.596,4.631c0.295-0.162,0.595-0.305,0.883-0.479     l-2.687-4.588C65.441,72.903,65.171,73.037,64.906,73.183"/>
    </g>
  </g>
  <g opacity="0.7">
    <g>
      <defs>
        
          <rect id="SVGID_17_" x="37.455" y="36.193" transform="matrix(-0.7509 -0.6604 0.6604 -0.7509 45.8206 91.4216)" width="5.392" height="1.754"/>
      </defs>
      <clipPath id="SVGID_18_">
        <use xlink:href="#SVGID_17_" overflow="visible"/>
      </clipPath>
      <path clip-path="url(#SVGID_18_)" fill="#FCEEF4" d="M42.18,38.845l-3.361-4.113c-0.259,0.204-0.51,0.424-0.763,0.639l3.44,4.049     C41.721,39.225,41.947,39.028,42.18,38.845"/>
    </g>
  </g>
  <g opacity="0.7">
    <g>
      <defs>
        
          <rect id="SVGID_19_" x="67.255" y="72.038" transform="matrix(-0.7509 -0.6604 0.6604 -0.7509 74.3257 173.8692)" width="5.392" height="1.762"/>
      </defs>
      <clipPath id="SVGID_20_">
        <use xlink:href="#SVGID_19_" overflow="visible"/>
      </clipPath>
      <path clip-path="url(#SVGID_20_)" fill="#FCEEF4" d="M67.918,71.147l3.361,4.113c0.26-0.211,0.517-0.423,0.768-0.644l-3.439-4.05     C68.385,70.768,68.149,70.956,67.918,71.147"/>
    </g>
  </g>
  <g opacity="0.8">
    <g>
      <defs>
        
          <rect id="SVGID_21_" x="34.55" y="39.394" transform="matrix(-0.7509 -0.6604 0.6604 -0.7509 38.8162 94.4797)" width="5.351" height="1.051"/>
      </defs>
      <clipPath id="SVGID_22_">
        <use xlink:href="#SVGID_21_" overflow="visible"/>
      </clipPath>
      <path clip-path="url(#SVGID_22_)" fill="#FCEEF4" d="M39.384,41.469c0.06-0.067,0.125-0.125,0.184-0.189l-4.032-3.475     c-0.046,0.053-0.099,0.098-0.146,0.151c-0.176,0.2-0.322,0.413-0.491,0.619l4.091,3.391     C39.125,41.801,39.243,41.629,39.384,41.469"/>
    </g>
  </g>
  <g opacity="0.8">
    <g>
      <defs>
        
          <rect id="SVGID_23_" x="70.178" y="69.445" transform="matrix(-0.7509 -0.6604 0.6604 -0.7509 81.3594 170.6346)" width="5.363" height="1.057"/>
      </defs>
      <clipPath id="SVGID_24_">
        <use xlink:href="#SVGID_23_" overflow="visible"/>
      </clipPath>
      <path clip-path="url(#SVGID_24_)" fill="#FCEEF4" d="M70.531,68.628l4.031,3.471c0.22-0.255,0.413-0.523,0.62-0.784l-4.089-3.392     C70.906,68.158,70.73,68.398,70.531,68.628"/>
    </g>
  </g>
  <g opacity="0.9">
    <g>
      <defs>
        
          <rect id="SVGID_25_" x="32.18" y="42.216" transform="matrix(-0.751 -0.6604 0.6604 -0.751 32.5159 98.6567)" width="5.363" height="1.962"/>
      </defs>
      <clipPath id="SVGID_26_">
        <use xlink:href="#SVGID_25_" overflow="visible"/>
      </clipPath>
      <path clip-path="url(#SVGID_26_)" fill="#FCEEF4" d="M37.419,44.14l-4.568-2.717c-0.175,0.283-0.372,0.555-0.534,0.843     l4.62,2.632C37.083,44.639,37.26,44.394,37.419,44.14"/>
    </g>
  </g>
  <g opacity="0.9">
    <g>
      <defs>
        
          <rect id="SVGID_27_" x="72.483" y="65.638" transform="matrix(-0.7509 -0.6604 0.6604 -0.7509 87.6494 166.2957)" width="5.409" height="1.958"/>
      </defs>
      <clipPath id="SVGID_28_">
        <use xlink:href="#SVGID_27_" overflow="visible"/>
      </clipPath>
      <path clip-path="url(#SVGID_28_)" fill="#FCEEF4" d="M72.65,65.688l4.567,2.716c0.172-0.287,0.336-0.576,0.494-0.869     l-4.621-2.633C72.948,65.168,72.803,65.428,72.65,65.688"/>
    </g>
  </g>
  <path fill="#FCEEF4" d="M35.778,47.326l-4.964-1.881c-0.125,0.31-0.25,0.617-0.361,0.93l5.001,1.787   C35.554,47.882,35.666,47.603,35.778,47.326"/>
  <path fill="#FCEEF4" d="M74.216,62.43l4.964,1.878c0.117-0.31,0.257-0.617,0.361-0.932l-5.008-1.787   C74.44,61.874,74.322,62.149,74.216,62.43"/>
  <path fill="#FCEEF4" d="M34.708,50.755l-5.212-0.988c-0.066,0.325-0.117,0.654-0.173,0.984l5.229,0.889   C34.602,51.347,34.646,51.049,34.708,50.755"/>
  <path fill="#FCEEF4" d="M75.191,58.958l5.212,0.989c0.062-0.329,0.126-0.655,0.174-0.985l-5.229-0.889   C75.306,58.37,75.248,58.663,75.191,58.958"/>
  <path fill="#FCEEF4" d="M34.256,54.33l-5.314-0.069c-0.009,0.334,0.015,0.667,0.017,1l5.3-0.031   C34.258,54.928,34.247,54.63,34.256,54.33"/>
  <path fill="#FCEEF4" d="M75.555,55.377l5.305,0.069c0.001-0.333-0.01-0.665-0.018-1l-5.302,0.033   C75.55,54.78,75.559,55.076,75.555,55.377"/>
  <path fill="#FCEEF4" d="M34.445,57.934l-5.238,0.854c0.048,0.329,0.101,0.659,0.161,0.988l5.219-0.954   C34.533,58.527,34.486,58.229,34.445,57.934"/>
  <path fill="#FCEEF4" d="M75.301,51.794l5.239-0.855c-0.054-0.328-0.139-0.65-0.206-0.976l-5.216,0.952   C75.179,51.208,75.255,51.499,75.301,51.794"/>
</g>
</svg>