<svg xmlns="http://www.w3.org/2000/svg" xmlns:xlink="http://www.w3.org/1999/xlink" version="1.1" id="Layer_1" x="0px" y="0px" width="110px" height="110px" viewBox="0 0 110 110" enable-background="new 0 0 110 110" xml:space="preserve">
<g>
  <path fill="#FFFFFF" d="M53.097,70.383C53.727,70.461,54.363,70.5,55,70.5c8.547,0,15.5-6.953,15.5-15.5   c0-4.002-1.499-7.743-4.18-10.592l1.859-1.675l-7.443-0.546l1.996,6.857l1.438-2.206c1.993,2.228,3.105,5.097,3.105,8.163   c0,6.771-5.506,12.276-12.275,12.276c-0.442,0-0.883-0.022-1.321-0.071L53.097,70.383z"/>
  <path fill="#FFFFFF" d="M57.08,39.639C56.393,39.546,55.697,39.5,55,39.5c-8.546,0-15.5,6.953-15.5,15.5   c0,3.99,1.551,7.792,4.244,10.645l-1.739,1.666l7.02,0.789l-1.535-7.002l-1.601,2.12c-2.012-2.235-3.165-5.157-3.165-8.218   c0-6.769,5.507-12.276,12.276-12.276c0.503,0,1.003,0.03,1.5,0.091L57.08,39.639z"/>
</g>
</svg>