<svg xmlns="http://www.w3.org/2000/svg" xmlns:xlink="http://www.w3.org/1999/xlink" version="1.1" id="Layer_1" x="0px" y="0px" width="110px" height="110px" viewBox="0 0 110 110" enable-background="new 0 0 110 110" xml:space="preserve">
<linearGradient id="SVGID_1_" gradientUnits="userSpaceOnUse" x1="325.6875" y1="-331.2495" x2="362.3471" y2="-288.1035" gradientTransform="matrix(1 0 0 -1 -282.5 -262.5)">
  <stop offset="0" style="stop-color:#FFFFFF;stop-opacity:0.9"/>
  <stop offset="1" style="stop-color:#FFFFFF;stop-opacity:0"/>
</linearGradient>
<path fill="url(#SVGID_1_)" d="M55.437,0.927c0,0-1.329,0.067-3.659,0.185c-0.582,0.032-1.225,0.065-1.926,0.102  c-0.696,0.106-1.447,0.222-2.25,0.343c-0.804,0.123-1.659,0.253-2.558,0.391c-0.904,0.123-1.816,0.436-2.789,0.661  c-0.968,0.252-1.976,0.512-3.018,0.785c-1.015,0.371-2.06,0.752-3.135,1.146c-0.54,0.197-1.083,0.396-1.635,0.6  c-0.544,0.225-1.071,0.501-1.614,0.758c-1.083,0.522-2.19,1.057-3.314,1.6c-4.355,2.461-8.682,5.62-12.506,9.346  c-3.727,3.82-6.881,8.151-9.342,12.504c-0.543,1.125-1.078,2.231-1.602,3.314c-0.253,0.546-0.533,1.073-0.756,1.616  c-0.203,0.55-0.403,1.095-0.601,1.635c-0.393,1.077-0.776,2.122-1.146,3.135c-0.27,1.042-0.533,2.051-0.783,3.017  c-0.226,0.974-0.54,1.888-0.659,2.791c-0.138,0.901-0.269,1.756-0.391,2.558c-0.121,0.804-0.236,1.554-0.343,2.25  c-0.037,0.702-0.071,1.345-0.104,1.928c-0.117,2.329-0.183,3.66-0.183,3.66v0.032c0,0,0.065,1.33,0.183,3.659  c0.032,0.584,0.067,1.228,0.105,1.929c0.105,0.692,0.22,1.446,0.341,2.25c0.122,0.802,0.254,1.657,0.393,2.556  c0.121,0.904,0.433,1.818,0.661,2.793c0.25,0.967,0.513,1.973,0.784,3.018c0.369,1.012,0.751,2.058,1.146,3.134  c0.197,0.538,0.396,1.083,0.6,1.636c0.224,0.541,0.503,1.067,0.757,1.613c0.522,1.083,1.057,2.189,1.601,3.314  c2.461,4.354,5.619,8.683,9.348,12.502c3.82,3.729,8.15,6.885,12.504,9.348c1.125,0.541,2.231,1.076,3.314,1.598  c0.545,0.256,1.073,0.535,1.614,0.758c0.553,0.202,1.097,0.402,1.634,0.601c1.077,0.392,2.125,0.776,3.135,1.145  c1.042,0.271,2.052,0.533,3.018,0.785c0.974,0.224,1.886,0.538,2.792,0.659c0.899,0.137,1.753,0.268,2.557,0.393  c0.803,0.12,1.555,0.235,2.25,0.342c0.7,0.037,1.345,0.07,1.928,0.103c2.329,0.118,3.659,0.185,3.659,0.185h0.033  c0,0,0.734-0.017,2.2-0.045c1.463-0.093,3.67-0.183,6.568-0.668c2.896-0.459,6.488-1.303,10.611-2.859  c4.102-1.586,8.746-3.905,13.428-7.465c-0.241-0.316-0.362-0.476-0.362-0.476l-0.358-0.478l-0.362-0.473c0,0-0.119-0.158-0.36-0.477  c-4.478,3.4-8.92,5.618-12.835,7.136c-3.94,1.486-7.375,2.291-10.146,2.733c-2.771,0.465-4.881,0.55-6.278,0.637  c-1.401,0.027-2.104,0.044-2.104,0.044h-0.032c0,0-1.274-0.065-3.501-0.178c-0.557-0.031-1.173-0.062-1.844-0.097  c-0.664-0.102-1.383-0.213-2.15-0.33c-0.768-0.117-1.584-0.241-2.445-0.371c-0.866-0.113-1.735-0.418-2.666-0.633  c-0.924-0.238-1.888-0.487-2.887-0.746c-0.966-0.354-1.966-0.722-2.994-1.098c-0.514-0.189-1.035-0.38-1.562-0.572  c-0.521-0.211-1.023-0.481-1.543-0.725c-1.036-0.5-2.094-1.011-3.168-1.525c-4.161-2.358-8.301-5.373-11.958-8.938  c-3.561-3.656-6.581-7.793-8.937-11.953c-0.52-1.075-1.028-2.136-1.527-3.17c-0.243-0.522-0.513-1.024-0.728-1.544  c-0.193-0.525-0.384-1.048-0.571-1.561c-0.378-1.029-0.744-2.03-1.097-2.996c-0.258-0.998-0.508-1.961-0.747-2.887  c-0.216-0.931-0.519-1.801-0.635-2.664c-0.131-0.861-0.255-1.68-0.371-2.445C4,62.01,3.89,61.293,3.788,60.629  c-0.035-0.67-0.068-1.285-0.097-1.844c-0.113-2.229-0.178-3.5-0.178-3.5L3.509,55.25c0,0,0.065-1.272,0.18-3.5  c0.029-0.557,0.062-1.173,0.096-1.845c0.102-0.664,0.211-1.38,0.33-2.149c0.116-0.767,0.24-1.584,0.373-2.445  c0.112-0.865,0.417-1.735,0.632-2.665c0.238-0.927,0.489-1.89,0.747-2.888c0.354-0.966,0.72-1.964,1.097-2.994  c0.187-0.515,0.378-1.035,0.571-1.563c0.213-0.518,0.483-1.021,0.726-1.542c0.5-1.035,1.009-2.093,1.526-3.169  c2.357-4.16,5.373-8.299,8.937-11.956c3.655-3.562,7.794-6.581,11.956-8.937c1.076-0.519,2.133-1.031,3.169-1.528  c0.521-0.244,1.024-0.512,1.542-0.726c0.528-0.194,1.048-0.384,1.563-0.571c1.028-0.378,2.028-0.745,2.996-1.1  c0.997-0.257,1.96-0.506,2.886-0.746c0.93-0.214,1.801-0.518,2.666-0.632c0.861-0.13,1.677-0.256,2.444-0.373  c0.768-0.117,1.485-0.227,2.151-0.33c0.67-0.034,1.288-0.068,1.844-0.096c2.229-0.114,3.5-0.177,3.5-0.177l0.032-0.001  c0,0,1.698,0.086,5.091,0.258c3.338,0.5,8.496,1.024,14.781,3.702c6.287,2.526,13.652,7.253,20.27,15.04  c3.193,3.972,6.113,8.728,8.271,14.268c2.154,5.534,3.504,11.87,3.52,18.678h0.596h0.598h0.599h0.596  c-0.015-7.115-1.423-13.749-3.677-19.537c-2.262-5.797-5.312-10.771-8.656-14.924C90.543,12.652,82.834,7.717,76.258,5.07  c-6.576-2.798-11.974-3.357-15.465-3.874c-3.548-0.179-5.323-0.269-5.323-0.269H55.437z"/>
</svg>